:SAMPLES-PER-SECOND 30
:FULLY-SPECIFIED
:DEGREES
262
root  -58.2697 39.6862 -1.41686 76.7104 85.5544 81.8368
RightUpLeg  -19.9857 -0.754298 -7.07936
RightLeg  34.7809 4.18967 2.87808
RightFoot  -2.71487 -0.573668 7.34962
RightToes  -4.65663e-010 0 -3.6325e-017
Spine  9.70261 -0.69113 -8.46148
Spine1  1.66424 -1.705 0.651776
HEad  -16.7704 0.690865 -1.35669
LeftShoulder1  -0.626695 5.09514 -33.217
LeftArm  8.25585 -6.17894 -41.7632
LeftForeArm  18.8998 -18.2173 -5.95491
LeftHand  -0.00743907 8.67262 1.34729
RightShoulder  -1.00657 -6.29144 29.5572
RightArm  26.239 -11.8029 46.3669
RightForeArm  13.9361 15.964 6.50611
RightHand  0.11221 6.68648 0.690728
LeftUpLeg  5.80218 6.56226 -6.07864
LeftLeg  13.1857 -0.0408292 -1.68149
LeftFoot  -14.7663 0.149702 2.02991
LeftToes  8.74931e-010 -1.05764e-010 1.2659e-011
263
root  -57.2843 39.6057 -1.49329 73.5931 85.459 78.6686
RightUpLeg  -19.7365 -2.24858 -6.32967
RightLeg  23.3791 5.19441 2.22261
RightFoot  -2.5826 -0.596661 7.55419
RightToes  -4.65663e-010 0 -3.6325e-017
Spine  9.86346 -0.648689 -8.03014
Spine1  1.40596 -1.50857 0.656845
HEad  -16.7852 0.74143 -1.23108
LeftShoulder1  -0.542408 4.89735 -32.7843
LeftArm  9.70264 -8.21626 -42.6017
LeftForeArm  17.1987 -19.4787 -5.36514
LeftHand  0.0174627 8.50888 2.23736
RightShoulder  -1.01276 -6.28807 29.8228
RightArm  24.1923 -11.7156 46.1122
RightForeArm  15.2185 15.1681 6.61913
RightHand  0.0755197 5.86695 0.439044
LeftUpLeg  7.89353 6.62791 -6.1948
LeftLeg  12.1864 0.16462 -1.58917
LeftFoot  -15.5544 0.185637 2.51089
LeftToes  8.74931e-010 -1.05764e-010 1.2659e-011
264
root  -56.2263 39.4898 -1.57479 73.8458 85.284 78.8293
RightUpLeg  -18.7606 -4.45714 -5.51581
RightLeg  11.5541 6.71963 1.34603
RightFoot  -2.74247 -0.643964 8.29871
RightToes  -4.65663e-010 0 -3.6325e-017
Spine  9.39906 -0.701771 -7.51912
Spine1  2.06886 -1.42686 0.695251
HEad  -17.0182 0.167672 -1.07171
LeftShoulder1  -0.538586 4.90493 -32.2837
LeftArm  10.9937 -10.0664 -43.62
LeftForeArm  15.8493 -20.6287 -4.88142
LeftHand  0.0240124 8.43134 2.47967
RightShoulder  -0.972745 -6.18256 29.7519
RightArm  22.0555 -11.3812 46.1991
RightForeArm  17.2437 14.1658 6.74993
RightHand  0.136737 5.33563 1.24971
LeftUpLeg  10.1602 6.64426 -6.39169
LeftLeg  11.0356 0.18959 -1.57812
LeftFoot  -16.5688 0.212048 2.47129
LeftToes  8.74931e-010 -1.05764e-010 1.2659e-011
265
root  -55.129 39.3412 -1.64196 77.5685 85.0641 82.4628
RightUpLeg  -17.6943 -6.8778 -4.72653
RightLeg  1.39906 7.21752 0.362472
RightFoot  -2.81489 -0.641898 8.36484
RightToes  -4.65663e-010 0 -3.6325e-017
Spine  9.18936 -0.784825 -6.73065
Spine1  2.3675 -1.34618 0.409314
HEad  -17.3715 -0.355835 -1.0445
LeftShoulder1  -0.480509 4.77245 -31.7426
LeftArm  12.4196 -11.1563 -44.5144
LeftForeArm  14.3878 -21.7682 -4.52713
LeftHand  0.0646186 8.91827 3.51804
RightShoulder  -0.978138 -6.18268 29.942
RightArm  20.4417 -11.0173 45.9265
RightForeArm  19.7167 13.0588 6.91704
RightHand  0.27301 4.49083 3.01277
LeftUpLeg  12.5339 6.57272 -6.63158
LeftLeg  9.84819 -0.202651 -1.57193
LeftFoot  -17.6316 0.226593 2.1942
LeftToes  8.74931e-010 -1.05764e-010 1.2659e-011
266
root  -53.9223 39.0792 -1.65773 81.2796 84.9423 86.5456
RightUpLeg  -16.7547 -7.08086 -4.73538
RightLeg  -3.70271 4.68244 0.347792
RightFoot  -3.8138 -0.635545 9.17599
RightToes  -4.65663e-010 0 -3.6325e-017
Spine  9.42384 -0.757012 -6.04948
Spine1  2.60344 -1.24987 0.27552
HEad  -17.4519 -0.623272 -1.27896
LeftShoulder1  -0.445141 4.67183 -31.9697
LeftArm  13.6139 -11.9272 -44.9068
LeftForeArm  14.7795 -22.729 -4.29199
LeftHand  0.0145763 8.21831 2.30817
RightShoulder  -1.07397 -6.40898 30.4313
RightArm  19.5405 -10.0181 45.3212
RightForeArm  18.7123 11.7303 7.36319
RightHand  0.105672 6.47578 0.635022
LeftUpLeg  15.0308 6.84343 -6.46132
LeftLeg  9.8962 -1.01049 -1.60137
LeftFoot  -19.2176 0.255634 2.03796
LeftToes  8.74931e-010 -1.05764e-010 1.2659e-011
267
root  -52.6684 38.7917 -1.61945 80.1185 84.8723 85.461
RightUpLeg  -17.7693 -6.95817 -4.33036
RightLeg  -0.748696 1.34088 0.780865
RightFoot  -3.15919 -0.521156 7.05439
RightToes  -4.65663e-010 0 -3.6325e-017
Spine  9.30166 -0.652802 -5.49164
Spine1  3.09341 -1.14713 0.433771
HEad  -18.0146 -0.506268 -1.62308
LeftShoulder1  -0.434656 4.64317 -32.0099
LeftArm  14.6376 -11.8953 -45.1627
LeftForeArm  14.3731 -23.5146 -4.30317
LeftHand  0.0142018 8.01542 2.3976
RightShoulder  -1.04226 -6.31841 30.4696
RightArm  18.3433 -8.95234 45.1585
RightForeArm  20.7908 10.5282 7.53094
RightHand  0.0981566 3.7691 0.994333
LeftUpLeg  17.2031 7.26966 -6.03906
LeftLeg  10.2102 -1.67676 -1.6986
LeftFoot  -20.8076 0.258562 1.62137
LeftToes  8.74931e-010 -1.05764e-010 1.2659e-011
268
root  -51.3359 38.5789 -1.58244 80.3119 85.6223 85.5499
RightUpLeg  -19.4332 -6.55596 -3.0573
RightLeg  5.35272 -1.53914 0.83714
RightFoot  1.09163 -0.21052 2.28451
RightToes  -4.65663e-010 0 -3.6325e-017
Spine  8.94369 -0.751203 -3.9464
Spine1  3.74613 -1.29528 0.926297
HEad  -18.5216 -0.553948 -2.50134
LeftShoulder1  -0.454656 4.68617 -32.3094
LeftArm  15.4396 -10.7707 -45.3115
LeftForeArm  14.5724 -24.2636 -4.42195
LeftHand  0.0229644 8.20205 2.63218
RightShoulder  -0.971489 -6.16724 29.9112
RightArm  17.2521 -8.39412 45.2581
RightForeArm  21.5585 10.2409 7.35206
RightHand  0.117546 3.8787 1.21615
LeftUpLeg  19.2298 7.83355 -4.65279
LeftLeg  10.62 -2.97615 -1.62158
LeftFoot  -21.7205 0.207172 0.838877
LeftToes  8.74931e-010 -1.05764e-010 1.2659e-011
269
root  -49.8909 38.4838 -1.53671 84.1799 87.2052 89.4092
RightUpLeg  -20.6531 -6.65671 -1.13819
RightLeg  10.5803 -0.734004 0.822055
RightFoot  6.16401 0.368993 -2.26758
RightToes  -4.65663e-010 0 -3.6325e-017
Spine  8.51376 -1.06236 -1.48186
Spine1  4.41312 -1.68235 1.65516
HEad  -18.6875 -0.421141 -3.06112
LeftShoulder1  -0.475953 4.72544 -32.8193
LeftArm  17.283 -8.94898 -45.0947
LeftForeArm  13.7351 -24.3081 -4.47199
LeftHand  0.0150277 7.81936 2.57432
RightShoulder  -1.04634 -6.34933 30.2279
RightArm  15.9005 -7.12089 44.6557
RightForeArm  21.675 9.0089 7.34684
RightHand  0.0763779 4.69246 0.567059
LeftUpLeg  21.3624 8.21138 -2.27003
LeftLeg  11.2403 -4.80478 -1.36279
LeftFoot  -21.6166 0.107735 -0.236201
LeftToes  8.74931e-010 -1.05764e-010 1.2659e-011
